<svg id="Layer_1" data-name="Layer 1" xmlns="http://www.w3.org/2000/svg" xmlns:xlink="http://www.w3.org/1999/xlink" viewBox="0 0 87.51 80"><defs><style>.cls-1{fill:#e44d26;}.cls-2{fill:#f16529;}.cls-3{fill:#ebebeb;}.cls-4{fill:#fff;}.cls-5{fill:#0d5aa2;}.cls-6{fill:#449cd1;}.cls-13,.cls-7{fill:#1a171b;}.cls-8{fill:url(#linear-gradient);}.cls-9{fill:url(#linear-gradient-2);}.cls-10{fill:url(#linear-gradient-3);}.cls-11,.cls-13{opacity:0.05;}.cls-12{fill:url(#linear-gradient-4);}.cls-13{isolation:isolate;}</style><linearGradient id="linear-gradient" x1="-569.9" y1="-7" x2="-569.9" y2="3.6" gradientTransform="matrix(1, 0, 0, -1, 629.01, 48.9)" gradientUnits="userSpaceOnUse"><stop offset="0.39" stop-color="#d8d9da" stop-opacity="0"/><stop offset="1" stop-color="#d8d9da"/></linearGradient><linearGradient id="linear-gradient-2" x1="-556.66" y1="-1.71" x2="-556.66" y2="9.31" xlink:href="#linear-gradient"/><linearGradient id="linear-gradient-3" x1="-576.28" y1="-11.73" x2="-550.82" y2="-11.73" gradientTransform="matrix(1, 0, 0, -1, 629.01, 48.9)" gradientUnits="userSpaceOnUse"><stop offset="0" stop-color="#eeedeb"/><stop offset="1" stop-color="#fff"/></linearGradient><linearGradient id="linear-gradient-4" x1="-577.45" y1="6.61" x2="-549.81" y2="6.61" xlink:href="#linear-gradient-3"/></defs><title>hc</title><polygon class="cls-1" points="3.97 56.67 0 12.11 43.66 12.11 39.68 56.67 21.8 61.62 3.97 56.67"/><polygon class="cls-2" points="21.83 57.84 36.27 53.83 39.67 15.76 21.83 15.76 21.83 57.84"/><polygon class="cls-3" points="21.83 32.28 14.6 32.28 14.1 26.69 21.83 26.69 21.83 21.22 21.81 21.22 8.12 21.22 8.26 22.69 9.6 37.75 21.83 37.75 21.83 32.28"/><polygon class="cls-3" points="21.83 46.48 21.81 46.48 15.72 44.84 15.33 40.48 12.37 40.48 9.84 40.48 10.61 49.06 21.81 52.17 21.83 52.16 21.83 46.48"/><path d="M4.06,0H6.84V2.74H9.38V0h2.78V8.31H9.38V5.53H6.84V8.31H4.06V0Z"/><path d="M15.81,2.76H13.37V0H21V2.76H18.59V8.31H15.81V2.76Z"/><path d="M22.25,0h2.9l1.78,2.92L28.71,0h2.9V8.31H28.84V4.19l-1.91,3h0L25,4.19V8.31H22.25V0Z"/><path d="M33,0h2.78V5.56h3.91V8.31H33V0Z"/><polygon class="cls-4" points="21.81 32.28 21.81 37.75 28.54 37.75 27.91 44.84 21.81 46.48 21.81 52.17 33.02 49.06 33.1 48.14 34.38 33.75 34.52 32.28 33.04 32.28 21.81 32.28"/><polygon class="cls-4" points="21.81 21.22 21.81 24.61 21.81 26.67 21.81 26.69 35 26.69 35 26.69 35.01 26.69 35.12 25.46 35.37 22.69 35.5 21.22 21.81 21.22"/><polygon class="cls-5" points="83.39 75.19 65.52 80 47.64 75.19 43.52 30.51 87.51 30.51 83.39 75.19"/><polygon class="cls-6" points="65.52 34.13 65.52 76.16 65.56 76.17 80.02 72.28 83.36 34.13 65.52 34.13"/><polygon class="cls-7" points="55.37 23.95 55.37 21.29 59.25 21.29 59.25 18.38 52.46 18.38 52.46 26.6 59.25 26.6 59.25 23.95 55.37 23.95"/><path class="cls-7" d="M66.23,21.29h2.71V18.38H62.16v2.91c.91.91,1.38,1.34,2.69,2.66H62.16V26.6h6.79V23.95Z"/><path class="cls-7" d="M75.86,21.29h2.71V18.38H71.78v2.91c.91.91,1.38,1.34,2.7,2.66h-2.7V26.6h6.79V23.95Z"/><polygon class="cls-4" points="65.5 45.3 52.71 50.63 53.13 55.9 65.5 50.61 78.66 44.99 79.2 39.59 65.5 45.3"/><polygon class="cls-8" points="52.71 50.63 53.13 55.9 65.5 50.61 65.5 45.3 52.71 50.63"/><polygon class="cls-9" points="79.2 39.59 65.5 45.3 65.5 50.61 78.66 44.99 79.2 39.59"/><polygon class="cls-10" points="52.73 50.63 53.15 55.9 72.13 55.96 71.7 62.99 65.46 64.75 59.46 63.24 59.09 58.87 53.52 58.87 54.24 67.3 65.52 70.63 76.73 67.36 78.19 50.63 52.73 50.63"/><g class="cls-11"><polygon class="cls-7" points="65.5 50.63 52.71 50.63 53.13 55.9 65.5 55.94 65.5 50.63"/><polygon class="cls-7" points="65.5 64.73 65.44 64.75 59.44 63.24 59.07 58.87 53.5 58.87 54.23 67.3 65.5 70.63 65.5 64.73"/></g><polygon class="cls-12" points="51.56 39.59 79.2 39.59 78.66 44.99 52.23 44.99 51.56 39.59"/><polygon class="cls-13" points="65.5 39.59 51.56 39.59 52.23 44.99 65.5 44.99 65.5 39.59"/></svg>