<?xml version="1.0" encoding="utf-8"?>
<!-- Generator: Adobe Illustrator 21.0.0, SVG Export Plug-In . SVG Version: 6.00 Build 0)  -->
<svg version="1.1" id="Layer_1" xmlns="http://www.w3.org/2000/svg" xmlns:xlink="http://www.w3.org/1999/xlink" x="0px" y="0px" width="83px" height="83px"
	 viewBox="0 0 100 100" style="enable-background:new 0 0 100 100;" xml:space="preserve">
<style type="text/css">
	.st0{display:none;}
	.st1{display:inline;fill:#E44D26;}
	.st2{display:inline;fill:#F16529;}
	.st3{display:inline;fill:#EBEBEB;}
	.st4{display:inline;}
	.st5{display:inline;fill:#FFFFFF;}
	.st6{fill:#193556;}
	.st7{fill:#172C45;}
	.st8{fill:#FEFEFE;}
	.st9{fill:#1C3758;}
	.st10{fill:#FCFCFC;}
	.st11{fill:#C2C7CE;}
	.st12{fill:#1E3959;}
</style>
<g class="st0">
	<polygon class="st1" points="1119.9,710 1114.8,652.2 1171.5,652.2 1166.3,710 1143.1,716.5 	"/>
	<polygon class="st2" points="1143.1,711.5 1161.9,706.3 1166.3,657 1143.1,657 	"/>
	<polygon class="st3" points="1143.1,678.3 1133.7,678.3 1133.1,671.2 1143.1,671.2 1143.1,664 1143.1,664 1125.3,664 1125.5,666 
		1127.3,685.5 1143.1,685.5 	"/>
	<polygon class="st3" points="1143.1,696.8 1143.1,696.8 1135.2,694.7 1134.7,689 1130.9,689 1127.6,689 1128.6,700.2 1143.1,704.3 
		1143.1,704.2 	"/>
	<path class="st4" d="M1120.1,636.5h3.6v3.6h3.3v-3.6h3.6v10.8h-3.6v-3.6h-3.3v3.6h-3.6V636.5L1120.1,636.5z"/>
	<path class="st4" d="M1135.3,640h-3.2v-3.6h10v3.6h-3.2v7.2h-3.6L1135.3,640L1135.3,640z"/>
	<path class="st4" d="M1143.7,636.5h3.8l2.3,3.8l2.3-3.8h3.8v10.8h-3.6V642l-2.5,3.8h-0.1l-2.5-3.8v5.3h-3.5L1143.7,636.5
		L1143.7,636.5z"/>
	<path class="st4" d="M1157.6,636.5h3.6v7.2h5.1v3.6h-8.7V636.5z"/>
	<polygon class="st5" points="1143.1,678.3 1143.1,685.5 1151.8,685.5 1151,694.7 1143.1,696.8 1143.1,704.2 1157.7,700.2 
		1157.8,699 1159.4,680.3 1159.6,678.3 1157.7,678.3 	"/>
	<polygon class="st5" points="1143.1,664 1143.1,668.5 1143.1,671.2 1143.1,671.2 1160.2,671.2 1160.2,671.2 1160.2,671.2 
		1160.4,669.5 1160.7,666 1160.9,664 	"/>
</g>
<g>
	<g>
		<path class="st6" d="M51,16.3c0.8,0.2,1.4,0.7,2.1,1.1C61.6,22.3,70,27.2,78.5,32c1.3,0.8,1.8,1.5,1.8,3.1
			c-0.1,10.2-0.1,20.5,0,30.7c0,0.7-0.2,1-0.8,1.3c-8.1,4.7-16.2,9.3-24.3,14c-1.2,0.7-2.5,1.4-3.7,2.2c-0.1,0.1-0.2,0.2-0.4,0.1
			c-0.3-0.4-0.3-0.8-0.3-1.3c0-5.2,0-10.5,0-15.7c0-1.3,0-1.3-1.4-1.4c-0.5,0-1,0-1.4,0c-0.3,0-0.6,0-0.8-0.3c0-0.5,0.4-0.4,0.7-0.4
			c0.9,0,1.7,0,2.6,0c0.6,0,0.9-0.3,1-0.8c0.3-1.8,0.8-3.5,1.1-5.3c0.2-0.9,0-1.1-0.9-1c-0.3,0-0.5,0.2-0.8,0.2
			c-0.3-0.2-0.2-0.5-0.2-0.8c0.1-0.9,0-6.3,0-6.8c0-0.6,0-1.1,0-1.7c0.1-0.8,0-5.9,0-6.4c0-0.3,0-0.7,0-1c0-7.7,0-15.3,0-23
			C50.7,17.1,50.6,16.6,51,16.3z"/>
		<path class="st7" d="M50.9,57.3c0.3,0.2-0.3,3.4-0.7,4.6c-0.2,0.9-0.8,1.1-1.8,0.9c-0.8-0.2-1.2-0.7-1.1-1.5
			c0.1-1.2,0.5-2.3,0.7-3.5c0-0.3,0.2-0.7-0.3-0.7c-0.4,0-1-0.2-1.2,0.4c-0.3,1.5-0.8,2.9-0.9,4.4c-0.1,0.9,0.3,1.6,1.1,2.1
			c0.2,0.1,0.3,0.2,0.4,0.4c0.8,0.3,1.6,0.1,2.3,0.1c1.6,0,1.6,0,1.6,1.6c0,5.7,0,11.4,0,17.1c-1.6-0.7-3.1-1.7-4.6-2.6
			c-5.2-3-10.4-6-15.7-9c-2.8-1.6-5.6-3.2-8.4-4.9c-0.3-0.2-0.4-0.4-0.4-0.7c0-0.1,0-0.3,0-0.4c0-10.6,0-21.3,0-31.9
			c0-0.6,0.2-1,0.7-1.3c8.9-5,17.7-10.1,26.5-15.2c0.6-0.4,1.2-0.8,1.9-1c0,8.3,0,16.6,0,24.9c0,0.2,0,5.5,0,6.1
			C51,48.5,50.9,57.2,50.9,57.3z"/>
		<path class="st8" d="M57.6,61.5c-0.6,0-1.3,0-1.9,0c-0.2,0-0.5-0.1-0.6,0.2s0.1,0.6,0.4,0.7c0.3,0.2,0.6,0.2,1,0.2
			c0.9,0,1.8,0,2.7,0c0.4,0,0.5,0.1,0.4,0.5c-0.2,1.5-0.2,1.5-1.7,1.5c-1,0-1.9,0.1-2.9-0.1c-1.7-0.3-2.3-1-2.2-2.8
			c0.1-0.9,0.3-1.8,0.6-2.6c0.8-2.1,2.4-2.5,4.4-2.5c0.1,0,0.2,0,0.3,0c1.7,0.2,2.4,0.9,2.3,2.6c-0.1,2-0.2,2.1-2.1,2.1
			C58.2,61.5,57.9,61.5,57.6,61.5z"/>
		<path class="st8" d="M47.1,64.6c-1.4-0.4-1.9-1.2-1.7-2.6c0.2-1.6,0.6-3.1,0.9-4.6c0.1-0.3,0.2-0.4,0.5-0.4c2,0,1.7-0.3,1.4,1.6
			c-0.2,1-0.4,2-0.6,3c-0.1,0.4-0.2,0.9,0.3,1.1c0.6,0.2,1.2,0.2,1.8,0.1c0.1,0,0.1-0.2,0.1-0.3c0.3-1.6,0.7-3.3,1-4.9
			c0.1-0.6,0.5-0.5,0.9-0.5c1.3,0,1.3,0,1.1,1.3c-0.4,1.9-0.8,3.8-1.2,5.7c-0.1,0.5-0.3,0.7-0.8,0.7C49.6,64.6,48.4,64.6,47.1,64.6z
			"/>
		<path class="st8" d="M69,60.3c1-1.4,1.9-2.7,2.7-4c0.3-0.5,0.7-0.8,1.3-0.7c0.4,0,0.7,0,1.1,0c0.2,0,0.5-0.1,0.6,0.1
			c0.1,0.2-0.1,0.4-0.3,0.5c-1.1,1.5-2.2,2.9-3.3,4.4c-0.8,1.1-1.8,2-1.9,3.5c0,0.3-0.2,0.4-0.5,0.4c-0.5,0-1,0-1.5,0
			c-0.3,0-0.5-0.1-0.4-0.4c0.7-1.6-0.1-3-0.5-4.4c-0.1-0.5,0-0.6,0.4-0.5c0.2,0,0.4,0,0.6,0C68.6,59.3,68.6,59.3,69,60.3z"/>
		<path class="st8" d="M64.8,56.8c0.6,0,1.2,0,1.9,0c1.2,0,1.5,0.3,1.7,1.4c0.1,0.4,0,0.5-0.4,0.5c-1.2,0-2.4,0.1-3.6,0.1
			c-0.4,0-0.6,0.1-0.7,0.6c-0.3,1.5-0.6,3-0.9,4.4c-0.1,0.5-0.3,0.7-0.8,0.7c-1.5,0-1.5,0-1.2-1.5c0.4-1.9,0.8-3.7,1.2-5.6
			c0.1-0.5,0.3-0.7,0.7-0.6C63.5,56.8,64.1,56.8,64.8,56.8z"/>
		<path class="st9" d="M56.9,51.3c-1.1,0-2.2,0-3.3,0v-0.1C54.7,51.3,55.8,51.3,56.9,51.3L56.9,51.3z"/>
		<path class="st8" d="M43.7,62.5c0.3,0,0.5,0,0.7,0c0.1,0,0.3,0,0.3,0.1c0.1,0.6-0.2,1.1-0.4,1.7c-0.1,0.4-0.4,0.2-0.7,0.2
			c-1.6,0-3.3,0-4.9,0c-1.9,0-3.1-1-3.2-2.8c-0.1-2.5,0.5-4.8,2.7-6.2c1.4-0.9,3-1,4.5-0.4s2.3,2.1,2.1,3.8
			C44.6,60.2,44.1,61.3,43.7,62.5z"/>
		<path class="st8" d="M30.4,67.7c-1.2,0-1.2,0-0.9-1.2c0.1-0.5,0.2-0.9,0.9-0.9c0.4,0.1,0.6-0.3,0.8-0.7c0.3-0.6,0.4-1.3,0.5-2
			c0.3-1.1,0.5-2.1,0.7-3.2c0.1-0.5,0.3-0.6,0.7-0.6c1.7,0,1.7,0,1.3,1.6c-0.3,1.5-0.6,3.1-1,4.6C32.9,67.2,32.3,67.7,30.4,67.7z"/>
		<path class="st10" d="M34.1,56.8c1.3,0,1.2,0,1,1.2c-0.1,0.6-0.4,0.8-1,0.7c-1.7-0.1-1.6,0.3-1.1-1.5C33.2,56.5,33.8,57,34.1,56.8
			z"/>
		<g>
			<path class="st11" d="M61.3,39.8L61.3,39.8L61.3,39.8z"/>
		</g>
		<path class="st12" d="M56.8,59.8c-0.2,0-0.3,0-0.5,0s-0.6,0.2-0.7-0.1c-0.1-0.3,0.2-0.5,0.5-0.7c0.5-0.3,1.1-0.4,1.7-0.2
			c0.3,0.1,0.5,0.4,0.4,0.8c-0.1,0.4-0.4,0.2-0.6,0.3C57.4,59.8,57.1,59.8,56.8,59.8z"/>
		<path class="st7" d="M40.1,62.5c-0.3,0-0.6,0-0.9,0c-0.6,0-1.2-0.4-1.2-1c-0.2-1.5,0.1-2.9,1.2-4c0.7-0.6,1.8-0.8,2.6-0.3
			c0.6,0.4,0.9,1.1,0.6,2.1c-0.2,1-0.5,1.9-0.8,2.8c-0.1,0.3-0.2,0.5-0.5,0.4C40.7,62.5,40.4,62.5,40.1,62.5z"/>
	</g>
	<g>
		<path class="st8" d="M40.8,36.3c-1.1,1.6-1.6,3.5-1.6,5.3c0,1.9,0.5,3.8,1.3,5.5c0,0.1,0.1,0.2,0.1,0.2c0,0.1,0,0.1,0.1,0.2v0.1
			c0,0.1,0.1,0.1,0.1,0.2c0.1,0.1,0.1,0.2,0.2,0.3c0,0.1,0.1,0.1,0.1,0.2c0.1,0.1,0.1,0.2,0.2,0.3l0.1,0.1c0.1,0.1,0.2,0.3,0.3,0.4
			l0,0c0,0,0,0,0,0.1c0.1,0.1,0.2,0.2,0.2,0.3l0.1,0.1c0.1,0.1,0.2,0.2,0.2,0.3l0.1,0.1c0.1,0.1,0.2,0.3,0.3,0.4l0,0l0,0
			c0.1,0.1,0.2,0.2,0.3,0.3l0.1,0.1c0.1,0.1,0.2,0.2,0.3,0.3l0.1,0.1c0.1,0.1,0.2,0.2,0.4,0.3l0,0c0,0,0,0,0.1,0
			c0.1,0.1,0.2,0.2,0.3,0.3l0.1,0.1c0.1,0.1,0.2,0.1,0.3,0.2l0.1,0.1c0.1,0.1,0.2,0.2,0.3,0.2l0.1,0.1l0,0c0.1,0.1,0.2,0.1,0.3,0.2
			l0.1,0.1c0.2,0.1,0.3,0.2,0.5,0.3c0,0,0.1,0,0.1,0.1c0.1,0.1,0.2,0.1,0.3,0.2c0.1,0,0.1,0.1,0.2,0.1c0.1,0,0.2,0.1,0.2,0.1
			s0,0,0.1,0H47c0.1,0.1,0.3,0.1,0.4,0.2c0,0,0,0,0.1,0c0.2,0.1,0.3,0.1,0.5,0.2h0.1c0.1,0.1,0.3,0.1,0.4,0.2l0,0
			c0.2,0.1,0.3,0.1,0.5,0.2h0.1c0.2,0,0.3,0.1,0.5,0.1c10.7,2,13.8-6.5,13.8-6.5c-2.6,3.4-7.2,4.4-11.6,3.3c-0.2,0-0.3-0.1-0.5-0.1
			h-0.1c-0.2,0-0.3-0.1-0.5-0.2c0,0,0,0-0.1,0s-0.3-0.1-0.4-0.2h-0.1c-0.2-0.1-0.3-0.1-0.4-0.2h-0.1c-0.1-0.1-0.3-0.1-0.4-0.2h-0.1
			c-0.1,0-0.2-0.1-0.3-0.2c-0.1,0-0.1-0.1-0.2-0.1c-0.1-0.1-0.2-0.1-0.3-0.2c0,0-0.1,0-0.1-0.1c-0.2-0.1-0.3-0.2-0.5-0.3l-0.1-0.1
			c-0.1-0.1-0.2-0.1-0.3-0.2c0,0-0.1,0-0.1-0.1c-0.1-0.1-0.2-0.2-0.3-0.2l-0.1-0.1c-0.1-0.1-0.2-0.1-0.3-0.2l-0.1-0.1
			c-0.1-0.1-0.2-0.2-0.4-0.3l0,0c-0.1-0.1-0.2-0.2-0.4-0.3l-0.1-0.1c-0.1-0.1-0.2-0.2-0.3-0.3l-0.1-0.1c-0.1-0.1-0.2-0.2-0.3-0.3
			l0,0c-0.1-0.1-0.2-0.2-0.3-0.4l-0.1-0.1c-0.1-0.1-0.2-0.2-0.2-0.3l-0.1-0.1c-0.1-0.1-0.2-0.2-0.3-0.4c-2.4-3.4-3.3-8-1.4-11.8
			L40.8,36.3z"/>
		<path class="st8" d="M47.6,33.7c-1.6,2.3-1.5,5.5-0.3,7.9c0.2,0.4,0.4,0.8,0.7,1.2c0.2,0.3,0.5,0.8,0.8,1c0.1,0.1,0.2,0.3,0.4,0.4
			l0.1,0.1c0.1,0.1,0.2,0.2,0.4,0.3l0,0l0,0c0.1,0.1,0.3,0.2,0.4,0.4l0.1,0.1c0.1,0.1,0.3,0.2,0.4,0.3l0,0c0.1,0,0.1,0.1,0.2,0.1
			c0,0,0.1,0,0.1,0.1c0.1,0.1,0.2,0.1,0.3,0.2l0,0c0.1,0.1,0.2,0.1,0.3,0.2c0,0,0.1,0,0.1,0.1c0.1,0,0.1,0.1,0.2,0.1l0,0
			c0.1,0.1,0.3,0.1,0.4,0.2h0.1c0.1,0,0.2,0.1,0.3,0.1s0.1,0,0.2,0.1c0.1,0,0.2,0.1,0.3,0.1h0.1c0.2,0,0.3,0.1,0.5,0.1
			c8.3,1.4,10.2-5.1,10.2-5.1c-1.7,2.5-5,3.7-8.6,2.8c-0.2,0-0.3-0.1-0.5-0.1h-0.1c-0.1,0-0.2-0.1-0.3-0.1c0,0-0.1,0-0.1-0.1
			c-0.1,0-0.2-0.1-0.4-0.1h-0.1c-0.1-0.1-0.3-0.1-0.4-0.2c-0.1,0-0.1-0.1-0.2-0.1c0,0-0.1,0-0.1-0.1c-0.1,0-0.2-0.1-0.3-0.2
			c0,0,0,0-0.1,0c-0.1-0.1-0.2-0.1-0.3-0.2c0,0-0.1,0-0.1-0.1c-0.1,0-0.1-0.1-0.2-0.1c-0.2-0.1-0.3-0.2-0.4-0.3l-0.1-0.1
			c-1.6-1.2-2.8-2.9-3.4-4.9c-0.6-2-0.5-4.2,0.6-6.1L47.6,33.7z"/>
		<path class="st8" d="M53.4,31.6c-0.9,1.4-1,3.2-0.4,4.7c0.7,1.7,2.1,2.9,3.8,3.6c0.1,0,0.1,0,0.2,0.1h0.1c0.1,0,0.2,0.1,0.3,0.1
			c4.6,0.9,5.8-2.4,6.1-2.9c-1.1,1.6-2.9,2-5.1,1.4c-0.2,0-0.4-0.1-0.5-0.2c-0.2-0.1-0.4-0.2-0.6-0.3c-0.4-0.2-0.8-0.4-1.1-0.7
			c-2-1.5-3.2-4.5-1.9-6.9L53.4,31.6z"/>
	</g>
</g>
</svg>
