<svg version="1.1" id="Layer_1" xmlns="http://www.w3.org/2000/svg" xmlns:xlink="http://www.w3.org/1999/xlink" x="0px" y="0px" width="83px" height="83px"
	 viewBox="0 0 100 100" style="enable-background:new 0 0 100 100;" xml:space="preserve">
<style type="text/css">
	.st0{fill-rule:evenodd;clip-rule:evenodd;fill:#F3D90A;}
	.st1{fill-rule:evenodd;clip-rule:evenodd;fill:#0B0B0A;}
</style>
<g>
	<rect x="2" y="0.9" class="st0" width="97.1" height="98.3"/>
	<path class="st1" d="M35,78.4c1.4,2.6,2.7,4.8,5.9,4.8c3,0,4.9-1.2,4.9-5.8V46h9.1v31.5c0,9.6-5.5,13.9-13.6,13.9
		c-7.3,0-11.5-3.8-13.7-8.4L35,78.4z M67.2,77.6c2,3.2,4.5,5.6,9,5.6c3.8,0,6.2-1.9,6.2-4.6c0-3.2-2.5-4.3-6.6-6.1l-2.3-1
		c-6.6-2.8-11-6.4-11-13.9c0-6.9,5.2-12.2,13.4-12.2c5.8,0,10,2,13,7.4l-7.1,4.6c-1.6-2.8-3.3-4-5.9-4c-2.7,0-4.4,1.7-4.4,4
		c0,2.8,1.7,3.9,5.6,5.6l2.3,1c7.8,3.4,12.1,6.8,12.1,14.5c0,8.3-6.5,12.9-15.1,12.9c-8.5,0-13.9-4.1-16.6-9.4L67.2,77.6z"/>
</g>
</svg>
