<?xml version="1.0" encoding="utf-8"?>
<!-- Generator: Adobe Illustrator 16.0.0, SVG Export Plug-In . SVG Version: 6.00 Build 0)  -->
<!DOCTYPE svg PUBLIC "-//W3C//DTD SVG 1.1//EN" "http://www.w3.org/Graphics/SVG/1.1/DTD/svg11.dtd">
<svg version="1.1" id="Layer_1" xmlns="http://www.w3.org/2000/svg" xmlns:xlink="http://www.w3.org/1999/xlink" x="0px" y="0px"
	 width="80px" height="54.331px" viewBox="0 0 80 54.331" enable-background="new 0 0 80 54.331" xml:space="preserve">
<g>
	<path fill="#5D87A1" d="M19.234,49.496h-3.087c-0.109-5.21-0.41-10.109-0.901-14.699h-0.027l-4.7,14.699h-2.35L3.497,34.797H3.469
		c-0.346,4.408-0.564,9.308-0.655,14.699H0c0.182-6.558,0.637-12.705,1.366-18.442h3.826l4.453,13.551h0.027l4.481-13.551h3.661
		C18.615,37.773,19.088,43.923,19.234,49.496"/>
	<path fill="#5D87A1" d="M32.622,35.89c-1.257,6.819-2.915,11.776-4.973,14.868c-1.604,2.383-3.36,3.573-5.273,3.573
		c-0.51,0-1.139-0.153-1.885-0.459v-1.644c0.364,0.054,0.792,0.082,1.284,0.082c0.892,0,1.611-0.247,2.159-0.739
		c0.655-0.6,0.983-1.273,0.983-2.021c0-0.51-0.256-1.557-0.765-3.141l-3.388-10.52h3.032l2.432,7.867
		c0.546,1.786,0.774,3.033,0.683,3.744c1.33-3.552,2.259-7.422,2.788-11.611H32.622z"/>
	<polygon fill="#F8981D" points="73.712,49.496 64.942,49.496 64.942,31.054 67.893,31.054 67.893,47.228 73.712,47.228 	"/>
	<path fill-rule="evenodd" clip-rule="evenodd" fill="#F8981D" d="M62.648,49.94l-3.39-1.671c0.301-0.248,0.588-0.515,0.848-0.824
		c1.439-1.692,2.159-4.196,2.159-7.513c0-6.101-2.395-9.153-7.186-9.153c-2.35,0-4.181,0.773-5.492,2.323
		c-1.439,1.694-2.158,4.189-2.158,7.486c0,3.242,0.637,5.62,1.912,7.131c1.166,1.365,2.924,2.049,5.274,2.049
		c0.877,0,1.683-0.107,2.414-0.324l4.414,2.569L62.648,49.94z M51.665,45.807c-0.747-1.202-1.121-3.131-1.121-5.791
		c0-4.645,1.412-6.968,4.235-6.968c1.476,0,2.559,0.556,3.252,1.666c0.746,1.202,1.12,3.115,1.12,5.737
		c0,4.682-1.412,7.023-4.235,7.023C53.44,47.475,52.356,46.92,51.665,45.807"/>
	<path fill="#F8981D" d="M46.143,44.384c0,1.564-0.574,2.849-1.72,3.853c-1.146,1.001-2.687,1.502-4.616,1.502
		c-1.803,0-3.552-0.577-5.246-1.722l0.792-1.584c1.457,0.729,2.776,1.092,3.96,1.092c1.111,0,1.98-0.247,2.609-0.735
		c0.628-0.492,1.004-1.178,1.004-2.048c0-1.096-0.764-2.032-2.165-2.816c-1.294-0.71-3.879-2.192-3.879-2.192
		c-1.401-1.021-2.103-2.118-2.103-3.925c0-1.494,0.523-2.701,1.57-3.62c1.048-0.921,2.401-1.381,4.058-1.381
		c1.712,0,3.269,0.457,4.671,1.367l-0.712,1.583c-1.2-0.509-2.383-0.764-3.549-0.764c-0.946,0-1.676,0.227-2.185,0.684
		c-0.512,0.454-0.827,1.037-0.827,1.748c0,1.092,0.78,2.039,2.221,2.84c1.31,0.71,3.958,2.221,3.958,2.221
		C45.425,41.506,46.143,42.593,46.143,44.384"/>
	<path fill-rule="evenodd" clip-rule="evenodd" fill="#5D87A1" d="M77.416,24.876c-1.784-0.045-3.165,0.133-4.323,0.623
		c-0.334,0.134-0.868,0.134-0.914,0.558c0.18,0.178,0.201,0.467,0.357,0.714c0.268,0.445,0.734,1.046,1.158,1.358
		c0.468,0.357,0.937,0.712,1.428,1.024c0.867,0.537,1.849,0.848,2.694,1.383c0.491,0.312,0.98,0.712,1.473,1.047
		c0.243,0.179,0.398,0.469,0.712,0.579v-0.067c-0.157-0.2-0.201-0.49-0.356-0.714c-0.223-0.222-0.445-0.423-0.669-0.646
		c-0.646-0.868-1.449-1.625-2.316-2.249c-0.714-0.492-2.275-1.16-2.563-1.982c0,0-0.022-0.023-0.045-0.046
		c0.49-0.045,1.071-0.224,1.538-0.358c0.757-0.2,1.447-0.155,2.228-0.355c0.356-0.09,0.714-0.201,1.071-0.312v-0.201
		c-0.403-0.4-0.691-0.937-1.115-1.314c-1.135-0.98-2.385-1.938-3.677-2.741c-0.691-0.446-1.583-0.734-2.318-1.114
		c-0.266-0.134-0.712-0.199-0.868-0.424c-0.401-0.49-0.625-1.135-0.914-1.716c-0.646-1.224-1.271-2.583-1.827-3.877
		c-0.4-0.869-0.646-1.737-1.136-2.54c-2.297-3.789-4.792-6.083-8.624-8.334c-0.825-0.469-1.806-0.669-2.852-0.914
		c-0.559-0.023-1.115-0.066-1.672-0.088c-0.357-0.157-0.714-0.581-1.025-0.781c-1.271-0.802-4.545-2.54-5.481-0.245
		c-0.602,1.449,0.891,2.875,1.404,3.61c0.378,0.512,0.869,1.092,1.135,1.671c0.156,0.379,0.201,0.781,0.357,1.181
		c0.356,0.98,0.69,2.073,1.159,2.987c0.244,0.468,0.512,0.959,0.823,1.38c0.18,0.247,0.491,0.356,0.559,0.759
		c-0.312,0.445-0.336,1.114-0.514,1.671c-0.802,2.518-0.49,5.638,0.646,7.486c0.355,0.558,1.203,1.783,2.34,1.314
		c1.003-0.4,0.78-1.671,1.07-2.784c0.066-0.27,0.021-0.446,0.154-0.624v0.045c0.313,0.623,0.625,1.224,0.915,1.85
		c0.69,1.091,1.894,2.228,2.897,2.984c0.533,0.402,0.957,1.092,1.625,1.338v-0.067h-0.044c-0.134-0.2-0.334-0.29-0.513-0.445
		c-0.401-0.4-0.846-0.892-1.159-1.337c-0.936-1.247-1.761-2.63-2.495-4.056c-0.357-0.692-0.668-1.449-0.958-2.14
		c-0.134-0.266-0.134-0.668-0.356-0.802c-0.336,0.49-0.824,0.914-1.069,1.514c-0.424,0.959-0.468,2.14-0.625,3.366
		c-0.089,0.023-0.044,0-0.089,0.044c-0.712-0.178-0.957-0.913-1.226-1.535c-0.668-1.584-0.78-4.125-0.2-5.952
		c0.155-0.467,0.826-1.938,0.557-2.383c-0.134-0.425-0.579-0.668-0.824-1.004c-0.289-0.423-0.603-0.957-0.802-1.426
		c-0.535-1.248-0.804-2.629-1.381-3.877c-0.269-0.581-0.736-1.182-1.114-1.716c-0.425-0.602-0.892-1.025-1.227-1.737
		c-0.11-0.246-0.267-0.647-0.089-0.914c0.044-0.178,0.134-0.246,0.313-0.291c0.288-0.245,1.113,0.066,1.403,0.2
		c0.824,0.333,1.516,0.647,2.205,1.114c0.313,0.223,0.646,0.646,1.047,0.759h0.469c0.713,0.155,1.516,0.043,2.186,0.245
		c1.18,0.378,2.249,0.936,3.208,1.538c2.918,1.85,5.325,4.479,6.951,7.621c0.268,0.512,0.38,0.98,0.625,1.514
		c0.468,1.094,1.048,2.208,1.515,3.276c0.468,1.048,0.914,2.116,1.583,2.986c0.334,0.468,1.672,0.713,2.273,0.958
		c0.444,0.2,1.136,0.379,1.537,0.623c0.758,0.468,1.514,1.003,2.229,1.517C76.234,23.872,77.348,24.429,77.416,24.876"/>
	<path fill-rule="evenodd" clip-rule="evenodd" fill="#5D87A1" d="M54.686,5.51c-0.378,0-0.645,0.045-0.914,0.112v0.045h0.044
		c0.18,0.355,0.492,0.603,0.713,0.914c0.18,0.356,0.336,0.712,0.514,1.068c0.022-0.021,0.044-0.045,0.044-0.045
		c0.313-0.222,0.47-0.578,0.47-1.114c-0.135-0.157-0.156-0.312-0.269-0.468C55.155,5.8,54.865,5.689,54.686,5.51"/>
	<path fill="#F8981D" d="M79.54,49.494H80v-2.26h-0.693l-0.564,1.54l-0.614-1.54H77.46v2.26h0.437v-1.72h0.024l0.644,1.72h0.332
		l0.643-1.72V49.494z M75.819,49.494h0.488v-1.876h0.641v-0.384h-1.794v0.384h0.665V49.494z"/>
</g>
</svg>
