<svg id="Layer_1" data-name="Layer 1" xmlns="http://www.w3.org/2000/svg" xmlns:xlink="http://www.w3.org/1999/xlink" viewBox="0 0 80 78"><defs><style>.cls-1{fill:url(#radial-gradient);}.cls-2{fill:#31c5f0;}</style><radialGradient id="radial-gradient" cx="666.03" cy="-20.13" r="0.02" gradientTransform="matrix(2291.67, 0, 0, -2218.75, -1526300.8, -44638.5)" gradientUnits="userSpaceOnUse"><stop offset="0" stop-color="#34364e" stop-opacity="0.98"/><stop offset="1" stop-color="#0c0824"/></radialGradient></defs><title>ps</title><path class="cls-1" d="M3.33,3.33H76.67V74.67H3.33Z"/><path class="cls-2" d="M3.33,3.33H76.67V74.67H3.33ZM0,78H80V0H0ZM53.93,32c-2.63,0-3.53,1.33-3.53,2.43s.6,2,4.13,3.87c5.23,2.53,6.87,5,6.87,8.53,0,5.33-4.07,8.2-9.57,8.2A14.49,14.49,0,0,1,45,53.6c-.23-.1-.27-.27-.27-.53v-4.9c0-.33.17-.43.4-.27a12.38,12.38,0,0,0,6.7,2c2.63,0,3.73-1.1,3.73-2.6,0-1.2-.77-2.27-4.13-4-4.73-2.27-6.7-4.57-6.7-8.4,0-4.3,3.37-7.87,9.2-7.87a15.33,15.33,0,0,1,6,.93.74.74,0,0,1,.33.67v4.57c0,.27-.17.43-.5.33a11.26,11.26,0,0,0-5.8-1.5ZM25.27,36C26,36,26.63,36,28,36c3.9,0,7.57-1.37,7.57-6.67,0-4.23-2.63-6.37-7.07-6.37-1.33,0-2.6.07-3.2.1Zm-5.93-17.7c0-.23.47-.4.73-.4,2.13-.1,5.3-.17,8.6-.17,9.23,0,12.83,5.07,12.83,11.53,0,8.47-6.13,12.1-13.67,12.1-1.27,0-1.7-.07-2.6-.07v12.8c0,.27-.1.4-.4.4h-5.1c-.27,0-.4-.1-.4-.4V18.27Z"/></svg>